<?xml version="1.0" encoding="UTF-8"?><svg id="Layer_1" xmlns="http://www.w3.org/2000/svg" viewBox="0 0 800 800"><defs><style>.cls-1{fill:#931300;}.cls-1,.cls-2,.cls-3{stroke-width:0px;}.cls-2{fill:#d44d01;}.cls-3{fill:#ffd6b5;}</style></defs><rect class="cls-1" width="800" height="800"/><rect class="cls-3" x="30" y="30" width="92.5" height="92.5"/><rect class="cls-2" x="122.5" y="30" width="92.5" height="92.5"/><rect class="cls-3" x="215" y="30" width="92.5" height="92.5"/><rect class="cls-2" x="307.5" y="30" width="92.5" height="92.5"/><rect class="cls-3" x="400" y="30" width="92.5" height="92.5"/><rect class="cls-2" x="492.5" y="30" width="92.5" height="92.5"/><rect class="cls-3" x="585" y="30" width="92.5" height="92.5"/><rect class="cls-2" x="677.5" y="30" width="92.5" height="92.5"/><rect class="cls-2" x="30" y="122.5" width="92.5" height="92.5"/><rect class="cls-3" x="122.5" y="122.5" width="92.5" height="92.5"/><rect class="cls-2" x="215" y="122.5" width="92.5" height="92.5"/><rect class="cls-3" x="307.5" y="122.5" width="92.5" height="92.5"/><rect class="cls-2" x="400" y="122.5" width="92.5" height="92.5"/><rect class="cls-3" x="492.5" y="122.5" width="92.5" height="92.5"/><rect class="cls-2" x="585" y="122.5" width="92.5" height="92.5"/><rect class="cls-3" x="677.5" y="122.5" width="92.5" height="92.5"/><rect class="cls-3" x="30" y="215" width="92.5" height="92.5"/><rect class="cls-2" x="122.5" y="215" width="92.5" height="92.5"/><rect class="cls-3" x="215" y="215" width="92.5" height="92.5"/><rect class="cls-2" x="307.5" y="215" width="92.5" height="92.5"/><rect class="cls-3" x="400" y="215" width="92.5" height="92.5"/><rect class="cls-2" x="492.5" y="215" width="92.5" height="92.5"/><rect class="cls-3" x="585" y="215" width="92.5" height="92.5"/><rect class="cls-2" x="677.5" y="215" width="92.5" height="92.5"/><rect class="cls-2" x="30" y="307.5" width="92.5" height="92.5"/><rect class="cls-3" x="122.5" y="307.5" width="92.5" height="92.5"/><rect class="cls-2" x="215" y="307.5" width="92.5" height="92.5"/><rect class="cls-3" x="307.5" y="307.5" width="92.5" height="92.5"/><rect class="cls-2" x="400" y="307.5" width="92.5" height="92.5"/><rect class="cls-3" x="492.5" y="307.5" width="92.5" height="92.5"/><rect class="cls-2" x="585" y="307.5" width="92.5" height="92.5"/><rect class="cls-3" x="677.5" y="307.5" width="92.5" height="92.5"/><rect class="cls-3" x="30" y="400" width="92.5" height="92.5"/><rect class="cls-2" x="122.5" y="400" width="92.5" height="92.5"/><rect class="cls-3" x="215" y="400" width="92.5" height="92.5"/><rect class="cls-2" x="307.5" y="400" width="92.5" height="92.5"/><rect class="cls-3" x="400" y="400" width="92.5" height="92.5"/><rect class="cls-2" x="492.5" y="400" width="92.5" height="92.5"/><rect class="cls-3" x="585" y="400" width="92.5" height="92.5"/><rect class="cls-2" x="677.5" y="400" width="92.5" height="92.5"/><rect class="cls-2" x="30" y="492.5" width="92.5" height="92.5"/><rect class="cls-3" x="122.5" y="492.5" width="92.5" height="92.5"/><rect class="cls-2" x="215" y="492.5" width="92.5" height="92.5"/><rect class="cls-3" x="307.5" y="492.5" width="92.5" height="92.5"/><rect class="cls-2" x="400" y="492.5" width="92.5" height="92.5"/><rect class="cls-3" x="492.5" y="492.5" width="92.5" height="92.5"/><rect class="cls-2" x="585" y="492.5" width="92.5" height="92.5"/><rect class="cls-3" x="677.5" y="492.5" width="92.5" height="92.5"/><rect class="cls-3" x="30" y="585" width="92.5" height="92.5"/><rect class="cls-2" x="122.5" y="585" width="92.5" height="92.5"/><rect class="cls-3" x="215" y="585" width="92.5" height="92.5"/><rect class="cls-2" x="307.5" y="585" width="92.5" height="92.5"/><rect class="cls-3" x="400" y="585" width="92.5" height="92.5"/><rect class="cls-2" x="492.5" y="585" width="92.5" height="92.5"/><rect class="cls-3" x="585" y="585" width="92.5" height="92.5"/><rect class="cls-2" x="677.5" y="585" width="92.5" height="92.5"/><rect class="cls-2" x="30" y="677.5" width="92.5" height="92.5"/><rect class="cls-3" x="122.5" y="677.5" width="92.5" height="92.5"/><rect class="cls-2" x="215" y="677.5" width="92.5" height="92.5"/><rect class="cls-3" x="307.5" y="677.5" width="92.5" height="92.5"/><rect class="cls-2" x="400" y="677.5" width="92.5" height="92.5"/><rect class="cls-3" x="492.5" y="677.5" width="92.5" height="92.5"/><rect class="cls-2" x="585" y="677.5" width="92.5" height="92.5"/><rect class="cls-3" x="677.5" y="677.5" width="92.5" height="92.5"/></svg>